<svg viewBox="0 0 120 120" class="w-full h-full" xmlns="http://www.w3.org/2000/svg">
    <defs>
        <linearGradient id="mainBg" x1="0%" y1="0%" x2="100%" y2="100%">
            <stop offset="0%" stop-color="#FF5A75"/>
            <stop offset="100%" stop-color="#FF2442"/>
        </linearGradient>
        <filter id="glow" x="-20%" y="-20%" width="140%" height="140%">
            <feDropShadow dx="0" dy="8" stdDeviation="12" flood-color="#FF2442" flood-opacity="0.25"/>
        </filter>
    </defs>
    <!-- 外层圆角矩形 (Squircle) -->
    <rect width="120" height="120" rx="28" fill="url(#mainBg)" filter="url(#glow)"/>
    
    <!-- 元素1：环绕飞梭 (自动发布) -->
    <path d="M 18 70 C 8 45 22 18 60 15 C 98 12 110 38 102 65" stroke="rgba(255,255,255,0.4)" stroke-width="4" stroke-linecap="round" fill="none"/>
    <!-- 飞梭箭头 -->
    <polygon points="104,63 94,54 109,56" fill="rgba(255,255,255,0.8)"/>

    <!-- 元素2：对话气泡 (懂用户需求) -->
    <rect x="25" y="30" width="70" height="46" rx="14" fill="#ffffff" opacity="0.95"/>
    <polygon points="38,75 38,90 52,75" fill="#ffffff" opacity="0.95"/>

    <!-- 元素3：AI 星光与图文生成 -->
    <!-- 魔法星光 (大) -->
    <path d="M 52 42 C 52 50 47 52 47 52 C 47 52 52 54 52 62 C 52 54 57 52 57 52 C 57 52 52 50 52 42 Z" fill="#FF2442"/>
    <!-- 魔法星光 (小) -->
    <path d="M 64 48 C 64 52 61 53 61 53 C 61 53 64 54 64 58 C 64 54 67 53 67 53 C 67 53 64 52 64 48 Z" fill="#FF2442"/>
    
    <!-- 图片元素 (代表自动配图) -->
    <rect x="68" y="44" width="16" height="12" rx="3" fill="#FFEBEE"/>
    <circle cx="72" cy="48" r="2" fill="#FF2442"/>
    <path d="M68 56 L 73 50 L 76 53 L 80 49 L 84 54 V 53 C 84 54.657 82.657 56 81 56 H 68 Z" fill="#FF2442" opacity="0.7"/>

</svg>